HIERARCHY
ROOT hip
{
  OFFSET 0 0 0
  CHANNELS 6 Xposition Yposition Zposition Zrotation Yrotation Xrotation
  JOINT abdomen
  {
    OFFSET 0 20.6881 -0.73152
    CHANNELS 3 Zrotation Xrotation Yrotation
    JOINT chest
    {
      OFFSET 0 11.7043 -0.48768
      CHANNELS 3 Zrotation Xrotation Yrotation
      JOINT neck
      {
        OFFSET 0 22.1894 -2.19456
        CHANNELS 3 Zrotation Xrotation Yrotation
        JOINT head
        {
          OFFSET -0.24384 7.07133 1.2192
          CHANNELS 3 Zrotation Xrotation Yrotation
          JOINT leftEye
          {
            OFFSET 4.14528 8.04674 8.04672
            CHANNELS 3 Zrotation Xrotation Yrotation
            End Site
            {
              OFFSET 1 0 0
            }
          }
          JOINT rightEye
          {
            OFFSET -3.6576 8.04674 8.04672
            CHANNELS 3 Zrotation Xrotation Yrotation
            End Site
            {
              OFFSET 1 0 0
            }
          }
        }
      }
      JOINT rCollar
      {
        OFFSET -2.68224 19.2634 -4.8768
        CHANNELS 3 Zrotation Xrotation Yrotation
        JOINT rShldr
        {
          OFFSET -8.77824 -1.95073 1.46304
          CHANNELS 3 Zrotation Xrotation Yrotation
          JOINT rForeArm
          {
            OFFSET -28.1742 -1.7115 0.48768
            CHANNELS 3 Zrotation Xrotation Yrotation
            JOINT rHand
            {
              OFFSET -22.5879 0.773209 7.07136
              CHANNELS 3 Zrotation Xrotation Yrotation
              JOINT rThumb1
              {
                OFFSET -1.2192 -0.487915 3.41376
                CHANNELS 3 Zrotation Xrotation Yrotation
                JOINT rThumb2
                {
                  OFFSET -3.37035 -0.52449 3.41376
                  CHANNELS 3 Zrotation Xrotation Yrotation
                  End Site
                  {
                    OFFSET -1.78271 -1.18214 1.43049
                  }
                }
              }
              JOINT rIndex1
              {
                OFFSET -7.75947 0.938293 5.60832
                CHANNELS 3 Zrotation Xrotation Yrotation
                JOINT rIndex2
                {
                  OFFSET -2.54057 -0.884171 1.56538
                  CHANNELS 3 Zrotation Xrotation Yrotation
                  End Site
                  {
                    OFFSET -1.62519 -0.234802 1.16502
                  }
                }
              }
              JOINT rMid1
              {
                OFFSET -8.24714 1.18213 3.41376
                CHANNELS 3 Zrotation Xrotation Yrotation
                JOINT rMid2
                {
                  OFFSET -3.10165 -0.590103 1.0647
                  CHANNELS 3 Zrotation Xrotation Yrotation
                  End Site
                  {
                    OFFSET -2.48547 -0.328903 0.83742
                  }
                }
              }
              JOINT rRing1
              {
                OFFSET -8.82822 0.546677 1.51678
                CHANNELS 3 Zrotation Xrotation Yrotation
                JOINT rRing2
                {
                  OFFSET -2.60934 -0.819778 -0.0198488
                  CHANNELS 3 Zrotation Xrotation Yrotation
                  End Site
                  {
                    OFFSET -2.33842 -0.294052 0.168128
                  }
                }
              }
              JOINT rPinky1
              {
                OFFSET -8.27202 -0.0477905 -0.4584
                CHANNELS 3 Zrotation Xrotation Yrotation
                JOINT rPinky2
                {
                  OFFSET -1.82734 -0.647385 -0.700984
                  CHANNELS 3 Zrotation Xrotation Yrotation
                  End Site
                  {
                    OFFSET -1.69225 -0.51767 -0.607171
                  }
                }
              }
            }
          }
        }
      }
      JOINT lCollar
      {
        OFFSET 2.68224 19.2634 -4.8768
        CHANNELS 3 Zrotation Xrotation Yrotation
        JOINT lShldr
        {
          OFFSET 8.77824 -1.95073 1.46304
          CHANNELS 3 Zrotation Xrotation Yrotation
          JOINT lForeArm
          {
            OFFSET 28.1742 -1.7115 0.48768
            CHANNELS 3 Zrotation Xrotation Yrotation
            JOINT lHand
            {
              OFFSET 22.5879 0.773209 7.07136
              CHANNELS 3 Zrotation Xrotation Yrotation
              JOINT lThumb1
              {
                OFFSET 1.2192 -0.487915 3.41376
                CHANNELS 3 Zrotation Xrotation Yrotation
                JOINT lThumb2
                {
                  OFFSET 3.37035 -0.52449 3.41376
                  CHANNELS 3 Zrotation Xrotation Yrotation
                  End Site
                  {
                    OFFSET 1.78271 -1.18214 1.43049
                  }
                }
              }
              JOINT lIndex1
              {
                OFFSET 7.75947 0.938293 5.60832
                CHANNELS 3 Zrotation Xrotation Yrotation
                JOINT lIndex2
                {
                  OFFSET 2.54057 -0.884171 1.56538
                  CHANNELS 3 Zrotation Xrotation Yrotation
                  End Site
                  {
                    OFFSET 1.62519 -0.234802 1.16502
                  }
                }
              }
              JOINT lMid1
              {
                OFFSET 8.24714 1.18213 3.41376
                CHANNELS 3 Zrotation Xrotation Yrotation
                JOINT lMid2
                {
                  OFFSET 3.10165 -0.590103 1.0647
                  CHANNELS 3 Zrotation Xrotation Yrotation
                  End Site
                  {
                    OFFSET 2.48547 -0.328903 0.83742
                  }
                }
              }
              JOINT lRing1
              {
                OFFSET 8.82822 0.546677 1.51678
                CHANNELS 3 Zrotation Xrotation Yrotation
                JOINT lRing2
                {
                  OFFSET 2.60934 -0.819778 -0.0198488
                  CHANNELS 3 Zrotation Xrotation Yrotation
                  End Site
                  {
                    OFFSET 2.33842 -0.294052 0.168128
                  }
                }
              }
              JOINT lPinky1
              {
                OFFSET 8.27202 -0.0477905 -0.4584
                CHANNELS 3 Zrotation Xrotation Yrotation
                JOINT lPinky2
                {
                  OFFSET 1.82734 -0.647385 -0.700984
                  CHANNELS 3 Zrotation Xrotation Yrotation
                  End Site
                  {
                    OFFSET 1.69225 -0.51767 -0.607171
                  }
                }
              }
            }
          }
        }
      }
    }
  }
  JOINT rButtock
  {
    OFFSET -8.77824 4.35084 1.2192
    CHANNELS 3 Zrotation Xrotation Yrotation
    JOINT rThigh
    {
      OFFSET 0 -1.70687 -2.19456
      CHANNELS 3 Zrotation Xrotation Yrotation
      JOINT rShin
      {
        OFFSET 0 -36.8199 0.73152
        CHANNELS 3 Zrotation Xrotation Yrotation
        JOINT rFoot
        {
          OFFSET 0.73152 -45.1104 -5.12064
          CHANNELS 3 Zrotation Xrotation Yrotation
          End Site
          {
            OFFSET -1.1221 -3.69964 12.103
          }
        }
      }
    }
  }
  JOINT lButtock
  {
    OFFSET 8.77824 4.35084 1.2192
    CHANNELS 3 Zrotation Xrotation Yrotation
    JOINT lThigh
    {
      OFFSET 0 -1.70687 -2.19456
      CHANNELS 3 Zrotation Xrotation Yrotation
      JOINT lShin
      {
        OFFSET 0 -36.8199 0.73152
        CHANNELS 3 Zrotation Xrotation Yrotation
        JOINT lFoot
        {
          OFFSET -0.73152 -45.1104 -5.12064
          CHANNELS 3 Zrotation Xrotation Yrotation
          End Site
          {
            OFFSET 1.1221 -3.69964 12.103
          }
        }
      }
    }
  }
}
MOTION
Frames:	6
Frame Time:	0.00833333
16.2709 77.9459 2.74674 -0.0 0.0 -0.0 -0.0 -4.771896 -180.0 -0.0 -4.771896 180.0 -6.906697 5.093511 -50.165498 8.325947 2.056425 50.323376 0.0 -0.0 -0.0 0.0 -0.0 -0.0 -155.61387 -4.23638 161.991154 -159.905035 -17.682477 161.946285 -179.460611 28.965513 145.962667 172.207212 -12.023478 144.411612 71.831195 -48.263725 25.791675 -158.672987 -40.683536 133.075503 12.562492 -22.428241 -5.203005 85.561901 -56.629389 41.45136 -159.365121 -2.685504 142.597465 -15.17215 42.683809 14.834938 -75.40572 72.953351 93.419967 -79.717742 -72.090037 -96.857606 -111.059157 -41.159436 -109.11664 39.203636 83.681316 0.107497 155.61387 -4.23638 -161.991154 159.905035 -17.682477 -161.946285 -176.320233 15.376671 -147.102612 -176.530387 1.44393 -145.27727 -1.590029 -1.575931 0.222909 55.743498 29.523897 -49.989059 -54.897581 -68.588656 -11.308409 12.822446 27.819567 -16.504473 0.057679 0.167876 -0.032027 175.130298 -30.845302 -144.113544 75.673382 -72.116249 92.828895 -8.995753 26.651033 -10.611459 25.537984 -38.087442 24.598474 23.927856 -42.038888 23.203412 -180.0 75.749642 -0.0 -180.0 75.749642 -0.0 -5.253206 4.259844 -61.803787 -12.28934 -29.388669 68.912511 -180.0 75.749642 -0.0 -180.0 75.749642 -0.0 5.65445 6.518803 81.877826 -137.80039 36.361309 56.021952
14.7733 78.249 3.05446 -0.0 0.0 -0.0 -0.0 0.0 -0.0 0.0 0.0 0.0 -6.906697 5.093511 -50.165498 8.325947 2.056425 50.323376 -0.0 0.0 -0.0 -0.0 0.0 -0.0 -155.54842 -3.80427 161.899949 -147.211654 20.940447 159.069852 -175.929581 -0.349271 144.571841 167.980399 -23.693841 142.703359 -7.351256 7.062242 1.570266 -150.169549 -57.484406 114.657434 -35.098171 35.161192 26.611628 1.143596 -1.307156 -9.164271 68.983989 -80.15399 40.578188 83.51269 -74.837955 55.481443 -0.006699 3.47564 1.092469 -165.982993 -0.851839 172.545227 -130.181845 -21.840068 -127.786175 -144.575844 10.988801 -143.367657 155.460052 -3.227798 -161.777534 144.40413 27.649099 -157.599724 109.633115 72.420333 -99.360061 -31.830354 -57.566365 -20.095377 12.926332 12.051571 -3.310159 -14.403991 -14.860669 1.675294 140.763228 1.380556 -116.229033 -21.326718 -6.752853 14.653609 -173.123457 -66.297779 -137.614274 -0.91299 8.530233 -4.415637 -0.000474 0.063775 -0.020036 166.344888 -11.222941 -173.135739 152.503054 38.522968 147.799022 146.924631 14.464542 141.296847 0.0 0.0 -0.0 -0.0 -0.0 -0.0 -4.919407 3.500227 -54.588129 -1.191179 -6.4982 57.702399 0.0 0.0 -0.0 -0.0 -0.0 -0.0 -2.948002 0.251893 -26.025665 29.55143 13.693669 13.332822
13.1081 78.7183 3.45426 -0.0 0.0 -0.0 -0.0 -4.771896 -180.0 -0.0 -4.771896 180.0 -6.428044 4.303628 -44.954717 7.582868 1.508835 45.096501 0.0 -0.0 -0.0 0.0 -0.0 -0.0 -80.1661 68.371792 83.260848 16.632722 26.669544 0.704846 168.739001 -0.618028 173.061238 -33.06368 62.045364 17.770411 71.831195 -48.263725 25.791675 -10.266994 -59.749428 -38.940165 37.215945 -57.917763 -0.643014 -175.687854 -28.948481 101.265266 -36.036059 51.723116 29.832321 -7.091045 26.049898 2.988361 -74.840941 72.961123 92.827929 -79.287789 -72.109616 -96.400729 -79.554196 -51.374964 -77.988404 -7.133363 -24.537256 -8.648246 80.1661 68.371792 -83.260848 72.229525 86.566453 -91.742579 179.578939 19.456858 -179.900376 7.027798 21.804884 -0.598541 7.758532 7.439094 -1.682075 137.085823 -40.163239 -114.330673 14.228542 19.203392 -9.559881 69.965773 51.526859 -43.097742 169.08961 -33.247392 -145.374931 5.635596 26.24222 -8.100847 -0.004875 1.770451 -0.556181 165.861686 -0.843264 -172.216658 144.109804 8.78177 140.874541 144.132239 9.280112 141.33812 -0.0 0.0 -0.0 -0.0 -0.0 -0.0 3.819913 0.604099 34.22701 115.371381 -60.06953 6.511236 -0.0 0.0 -0.0 -0.0 -0.0 -0.0 -6.817693 3.579341 -71.6195 153.900674 -47.824361 -97.6652
11.3632 79.2903 3.8481899999999998 -0.0 0.0 -0.0 -0.0 -4.771896 -180.0 -0.0 -4.771896 -180.0 -7.839959 7.474454 -64.637578 10.095103 3.902534 64.805654 0.0 -0.0 -0.0 0.0 -0.0 -0.0 -13.015985 41.250126 14.798846 8.183761 -0.121626 -3.949673 -7.87507 -11.306773 -7.498683 10.939437 -30.402805 4.058991 -15.47521 14.198813 4.248078 -101.695179 2.384009 92.265042 -159.053898 -31.319752 122.653982 148.046684 -67.529287 78.761093 -160.09819 -4.901163 142.968881 -173.640098 -42.744051 142.533446 0.004672 0.917785 0.288305 1.049655 -26.579437 -3.306912 -7.144637 -15.70735 -6.727898 -25.456781 -41.497985 -23.883982 80.1661 68.371792 -83.260848 70.372238 86.569955 -89.881867 173.975374 0.571027 -178.265857 0.982615 3.145806 0.080705 176.296405 -13.919363 -89.719018 176.816089 -13.140417 -95.495513 14.228542 19.203392 -9.559881 7.945002 11.162164 2.172606 36.036059 51.723116 -29.832321 89.976806 66.680668 -80.420352 0.000473 -0.060845 0.019116 44.563388 75.688758 -47.384796 163.643109 74.574101 150.515831 113.236995 -39.806964 111.103871 -0.0 0.0 -0.0 -0.0 -0.0 -0.0 6.649139 3.263768 68.510317 3.486063 -61.932348 -86.704478 -0.0 0.0 -0.0 -0.0 -0.0 -0.0 -6.882802 3.713377 -72.914422 150.789687 -3.80725 -86.372582
9.51345 79.8913 4.3212 -0.0 0.0 -0.0 -0.0 -4.771896 -180.0 -0.0 -4.771896 -180.0 -7.839959 7.474454 -64.637578 10.095103 3.902534 64.805654 0.0 -0.0 -0.0 0.0 -0.0 -0.0 -13.015985 41.250126 14.798846 8.183761 -0.121626 -3.949673 -7.87507 -11.306773 -7.498683 10.939437 -30.402805 4.058991 -172.745809 -10.423727 89.92934 -39.282892 -22.752926 5.189205 -108.427673 34.160977 91.742903 -3.474149 30.220841 -8.055751 -153.32078 13.628946 138.862343 -166.761945 -26.099052 145.241739 0.004673 0.918035 0.288384 -159.322766 43.117687 163.674652 -152.200278 37.330087 -147.582714 -123.299114 -30.343694 -122.252137 80.1661 68.371792 -83.260848 70.372238 86.569955 -89.881867 173.975374 0.571027 -178.265857 0.982615 3.145806 0.080705 4.034931 3.931563 -0.75474 26.761242 21.181976 -25.607257 166.821797 -43.973781 -122.061691 -108.640624 -66.637414 -43.25726 0.057679 0.167876 -0.032027 157.088324 20.531504 -138.565969 75.673382 -72.116249 92.828895 145.777128 22.750864 -162.124228 20.142617 -33.376681 19.314272 -33.596155 84.352461 -2.750292 -0.0 0.0 -0.0 -0.0 -0.0 -0.0 6.649139 3.263768 68.510317 -76.816462 59.112434 5.480162 -0.0 0.0 -0.0 -0.0 -0.0 -0.0 -6.882802 3.713377 -72.914422 150.72093 -3.373444 -86.243206
7.45443 80.5275 4.8353 0.0 -0.0 -0.0 -0.0 -0.0 -0.0 -0.0 0.0 -0.0 -7.779573 7.246478 -63.304714 9.952377 3.714708 63.474534 0.0 -0.0 -0.0 0.0 -0.0 -0.0 -150.168677 21.535282 155.275413 26.245706 -24.069774 10.875015 -1.008359 16.030473 -31.38981 162.998793 -34.845011 139.862788 -103.199394 36.330979 60.111426 -16.526319 -14.871323 29.679753 169.568139 -65.842545 109.956128 -106.298564 36.538858 91.788636 23.903801 -61.333833 1.399383 -21.709801 40.836685 17.781579 -0.021291 -1.725169 -0.542387 0.145794 -0.047464 0.316864 -132.163084 -18.654983 -129.69238 4.573313 -1.356722 -0.743955 80.1661 68.371792 -83.260848 -16.928347 14.037338 0.169172 -13.748969 68.968461 43.680071 -173.849403 -7.032197 -144.855252 85.829417 38.630721 -47.955432 94.502387 -6.056247 -67.493176 123.267852 23.359363 -103.983721 171.811625 -48.218545 -122.12858 125.644075 49.839986 -115.274123 167.384944 -25.687782 -147.130237 145.119466 0.267775 179.212461 142.000632 76.547482 -167.020272 86.000836 -50.498128 84.371009 146.211669 12.361573 145.279569 -180.0 75.749642 -0.0 -180.0 73.473292 -180.0 -7.080248 -6.369655 -103.605104 -135.055258 47.082849 66.206875 -180.0 75.749642 -0.0 -180.0 73.473292 -180.0 4.605221 -3.322687 138.122583 106.338457 25.137394 -33.941753
